<?xml version="1.0" encoding="iso-8859-1"?>
<!-- Generator: Adobe Illustrator 19.0.0, SVG Export Plug-In . SVG Version: 6.00 Build 0)  -->
<svg version="1.1" id="Layer_1" xmlns="http://www.w3.org/2000/svg" xmlns:xlink="http://www.w3.org/1999/xlink" x="0px" y="0px"
	 viewBox="0 0 512 512" style="enable-background:new 0 0 512 512;" xml:space="preserve">
<path style="fill:#F95428;" d="M501.977,255.999c0,135.854-110.133,245.973-245.973,245.973c-43.181,0-83.769-11.123-119.036-30.668
	C61.273,429.366,10.031,348.671,10.031,255.999c0-135.841,110.119-245.973,245.973-245.973c40.681,0,79.05,9.88,112.86,27.366
	C447.94,78.3,501.977,160.839,501.977,255.999z"/>
<path style="fill:#E54728;" d="M174.401,471.304C98.706,429.366,47.463,348.671,47.463,255.999
	c0-129.481,100.048-235.604,227.068-245.258c-6.119-0.456-12.293-0.715-18.528-0.715c-135.854,0-245.973,110.133-245.973,245.973
	c0,92.673,51.243,173.367,126.937,215.305c35.267,19.545,75.855,30.668,119.036,30.668c6.357,0,12.659-0.242,18.896-0.715
	C238.646,498.555,204.573,488.026,174.401,471.304z"/>
<g>
	<path style="fill:#FFFFFF;" d="M244.765,203.527c0-34.462-28.037-62.499-62.499-62.499s-62.499,28.037-62.499,62.499
		c0,5.537,4.488,10.027,10.027,10.027s10.027-4.489,10.027-10.027c0-23.405,19.041-42.446,42.446-42.446
		s42.446,19.041,42.446,42.446c0,31.16-12.134,60.454-34.168,82.487l-67.842,67.842c-2.868,2.868-3.725,7.18-2.172,10.926
		c1.551,3.747,5.208,6.19,9.263,6.19h104.945c5.539,0,10.027-4.489,10.027-10.027c0-5.537-4.488-10.027-10.027-10.027h-80.74
		l50.725-50.725C230.544,274.373,244.765,240.043,244.765,203.527z"/>
	<path style="fill:#FFFFFF;" d="M395.577,282.069h-27.819V151.055c0-4.511-3.012-8.466-7.361-9.666
		c-4.352-1.199-8.962,0.652-11.275,4.525l-84.224,141.041c-1.85,3.098-1.893,6.952-0.111,10.089
		c1.781,3.139,5.111,5.077,8.719,5.077h74.197v58.823c0,5.537,4.488,10.027,10.027,10.027c5.539,0,10.027-4.489,10.027-10.027
		v-58.823h27.819c5.539,0,10.027-4.489,10.027-10.027S401.115,282.069,395.577,282.069z M347.705,187.402v94.667h-56.531
		L347.705,187.402z"/>
</g>
<g>
	<path style="fill:#333333;" d="M502.941,188.276c-1.461-5.342-6.985-8.488-12.315-7.027c-5.342,1.46-8.489,6.975-7.028,12.315
		c5.54,20.264,8.349,41.271,8.349,62.435c0,130.102-105.845,235.947-235.947,235.947S20.053,386.102,20.053,256
		S125.898,20.053,256,20.053c71.284,0,138.517,32.33,183.149,87.245h-15.392c-5.539,0-10.027,4.489-10.027,10.027
		c0,5.537,4.488,10.027,10.027,10.027h38.792c5.539,0,10.027-4.489,10.027-10.027V78.534c0-5.537-4.488-10.027-10.027-10.027
		s-10.027,4.489-10.027,10.027v13.441C404.108,34.021,332.182,0,256,0C114.841,0,0,114.841,0,256s114.841,256,256,256
		s256-114.841,256-256C512,233.05,508.952,210.264,502.941,188.276z"/>
	<path style="fill:#333333;" d="M256,68.969c5.539,0,10.027-4.489,10.027-10.027V45.871c0-5.537-4.488-10.027-10.027-10.027
		s-10.027,4.489-10.027,10.027v13.071C245.973,64.479,250.463,68.969,256,68.969z"/>
	<path style="fill:#333333;" d="M245.973,466.129c0,5.537,4.488,10.027,10.027,10.027s10.027-4.489,10.027-10.027v-13.071
		c0-5.537-4.488-10.027-10.027-10.027s-10.027,4.489-10.027,10.027V466.129z"/>
	<path style="fill:#333333;" d="M468.216,266.027c5.539,0,10.027-4.489,10.027-10.027c0-5.537-4.488-10.027-10.027-10.027h-15.158
		c-5.539,0-10.027,4.489-10.027,10.027c0,5.537,4.488,10.027,10.027,10.027H468.216z"/>
	<path style="fill:#333333;" d="M68.969,256c0-5.537-4.488-10.027-10.027-10.027H43.784c-5.539,0-10.027,4.489-10.027,10.027
		c0,5.537,4.488,10.027,10.027,10.027h15.158C64.479,266.027,68.969,261.537,68.969,256z"/>
	<circle style="fill:#333333;" cx="440.022" cy="149.758" r="10.027"/>
	<circle style="fill:#333333;" cx="362.242" cy="71.977" r="10.027"/>
	<circle style="fill:#333333;" cx="149.744" cy="71.977" r="10.027"/>
	<circle style="fill:#333333;" cx="71.968" cy="149.758" r="10.027"/>
	<circle style="fill:#333333;" cx="71.968" cy="362.256" r="10.027"/>
	<circle style="fill:#333333;" cx="149.744" cy="440.035" r="10.027"/>
	<circle style="fill:#333333;" cx="362.242" cy="440.022" r="10.027"/>
	<circle style="fill:#333333;" cx="440.022" cy="362.242" r="10.027"/>
</g>
<g>
</g>
<g>
</g>
<g>
</g>
<g>
</g>
<g>
</g>
<g>
</g>
<g>
</g>
<g>
</g>
<g>
</g>
<g>
</g>
<g>
</g>
<g>
</g>
<g>
</g>
<g>
</g>
<g>
</g>
</svg>
